<svg width="44" height="44" viewBox="0 0 44 44" fill="none" xmlns="http://www.w3.org/2000/svg">
<path d="M6.86021 34.0175C9.06021 36.6666 13.1522 36.6666 21.3399 36.6666H22.6599C30.8475 36.6666 34.9414 36.6666 37.1414 34.0175M6.86021 34.0175C4.66021 31.3665 5.41555 27.3441 6.92438 19.2958C7.99688 13.5758 8.53221 10.714 10.569 9.02365M37.1414 34.0175C39.3414 31.3665 38.586 27.3441 37.0772 19.2958C36.0047 13.5758 35.4675 10.714 33.4307 9.02365M33.4307 9.02365C31.3957 7.33331 28.4825 7.33331 22.6617 7.33331H21.338C15.5172 7.33331 12.6059 7.33331 10.569 9.02365" stroke="white" stroke-width="2.125"/>
<path d="M16.8115 14.6667C17.1903 15.7402 17.8927 16.6697 18.822 17.3272C19.7512 17.9848 20.8615 18.3378 21.9999 18.3378C23.1382 18.3378 24.2485 17.9848 25.1778 17.3272C26.107 16.6697 26.8094 15.7402 27.1882 14.6667" stroke="white" stroke-width="2.125" stroke-linecap="round"/>
</svg>
