<svg width="24" height="22" viewBox="0 0 24 22" fill="none" xmlns="http://www.w3.org/2000/svg">
<path d="M20.1053 -1.26532e-07L20.1053 8.25M20.1053 8.25C21.0702 8.25 23 8.8 23 11C23 13.2 21.0702 13.75 20.1053 13.75M20.1053 8.25C19.1404 8.25 17.2106 8.8 17.2106 11C17.2106 13.2 19.1404 13.75 20.1053 13.75M20.1053 13.75L20.1053 22" stroke="#2A2A2A"/>
<path d="M12.0003 -1.26532e-07L12.0003 2.75M12.0003 2.75C12.9652 2.75 14.895 3.3 14.895 5.5C14.895 7.7 12.9652 8.25 12.0003 8.25M12.0003 2.75C11.0354 2.75 9.1056 3.3 9.1056 5.5C9.1056 7.7 11.0354 8.25 12.0003 8.25M12.0003 8.25L12.0003 22" stroke="#2A2A2A"/>
<path d="M3.89484 -1.26532e-07L3.89484 13.75M3.89484 13.75C4.85974 13.75 6.78955 14.3 6.78955 16.5C6.78955 18.7 4.85974 19.25 3.89484 19.25M3.89484 13.75C2.92994 13.75 1.00013 14.3 1.00013 16.5C1.00013 18.7 2.92994 19.25 3.89484 19.25M3.89484 19.25L3.89484 22" stroke="#2A2A2A"/>
</svg>
