<svg width="188" height="19" viewBox="0 0 188 19" fill="none" xmlns="http://www.w3.org/2000/svg">
<path d="M120.822 1.53232C120.785 1.55989 120.756 3.70129 120.756 6.28383C120.756 11.3846 120.728 11.743 120.229 12.6897C120.088 12.9654 119.702 13.4617 119.372 13.8017L118.76 14.4175L119.118 14.831C119.315 15.0608 119.532 15.2538 119.607 15.2538C119.852 15.2538 120.992 14.0131 121.293 13.4065C121.905 12.2026 121.915 12.0831 121.953 7.18451L121.99 2.75466H125.192H128.385V8.77447V14.7943H128.997H129.61V8.13114V1.46798H125.249C122.847 1.46798 120.851 1.49556 120.822 1.53232Z" fill="#2A2A2A"/>
<path d="M144 1.5323L143.454 1.56907V8.18627V14.8035L144.095 14.7759L144.726 14.7483V8.79284V2.82817L146.798 2.86493C148.644 2.89251 148.917 2.92008 149.293 3.0947C149.877 3.35203 150.282 3.70127 150.593 4.21595C150.829 4.60195 150.847 4.72143 150.847 5.61291C150.847 6.53197 150.829 6.60549 150.565 7.02826C150.263 7.51536 149.745 7.91055 149.199 8.08517C149.02 8.14031 148.352 8.21384 147.721 8.24141C147.08 8.26898 144.726 8.22303 144.726 8.24141C144.726 8.25979 144.726 8.47578 144.726 8.85489V9.55566H147.617C148.436 9.54647 149.416 9.39023 150.009 9.17885C150.772 8.90313 151.629 8.06679 151.912 7.32235C152.232 6.50439 152.335 5.65886 152.213 4.90524C151.996 3.55423 151.224 2.57084 149.896 1.95507C149.227 1.64259 149.124 1.62421 147.805 1.55068C146.43 1.47716 145.027 1.47716 144 1.5323Z" fill="#2A2A2A"/>
<path d="M155.32 8.14948V14.7943H158.852H162.384V14.1509V13.5076L159.493 13.4892L156.592 13.4616L156.564 10.8607L156.545 8.26896H158.899H161.254V7.62562V6.98228H158.899H156.545L156.564 4.88683L156.592 2.80058L159.493 2.773L162.384 2.75462V2.15724V1.55985L158.852 1.54147L155.32 1.5139V8.14948Z" fill="#2A2A2A"/>
<path d="M169.589 1.55985C168.186 1.64257 167.489 1.87233 166.641 2.55243C166.105 2.96601 165.643 3.67368 165.445 4.35378C165.21 5.15336 165.285 6.40327 165.605 7.09257C166.086 8.09434 166.971 8.77444 168.148 9.01339C168.421 9.06853 168.666 9.13287 168.685 9.15125C168.704 9.16044 168.629 9.28911 168.525 9.43616C168.243 9.82216 165.021 14.7207 165.021 14.7575C165.021 14.7759 165.37 14.7943 165.803 14.7943L166.575 14.7851L168.742 11.4673C169.938 9.63835 170.917 8.09434 170.936 8.03919C170.955 7.95648 170.635 7.91052 169.712 7.88295C168.676 7.85538 168.384 7.80943 167.988 7.63481C167.31 7.34071 166.924 6.93633 166.745 6.34813C166.453 5.36474 166.717 4.32621 167.395 3.71044C168.224 2.96601 168.723 2.84653 171.021 2.84653H172.839V8.82039V14.7943H173.451H174.063V8.14948V1.5139L172.387 1.50471C171.473 1.49552 170.211 1.52309 169.589 1.55985Z" fill="#2A2A2A"/>
<path d="M13.6899 1.65176C13.4945 1.65177 13.2472 1.65177 13.0353 1.65177C13.0353 1.90452 13.0353 2.20321 13.0118 8.17706C13 14.9896 13 14.0935 13 14.7851H14.3068V8.8204V2.80058H15.7548H17.3441H19.7105V1.65176H16.8497C15.2769 1.66095 13.8661 1.65176 13.6899 1.65176Z" fill="#2A2A2A"/>
<path d="M26.5929 2.12969C26.4893 2.45136 25.4438 5.38315 24.276 8.66418C23.1081 11.9452 22.1475 14.6656 22.1475 14.7116C22.1475 14.7575 22.4394 14.7943 22.7973 14.7943H23.4472L23.579 14.3991C24.5491 11.5224 27.5629 2.87413 27.6006 2.82817C27.6383 2.79141 28.0715 3.9678 28.5801 5.44748C29.0887 6.92716 30.0211 9.61999 30.6615 11.4397L31.8105 14.7483L32.4886 14.7759L33.1573 14.8035L32.8465 13.9028C32.6676 13.4065 31.6881 10.6677 30.6709 7.80945C29.6444 4.95119 28.7308 2.37784 28.6272 2.08374L28.4388 1.55988H27.6194H26.7906L26.5929 2.12969Z" fill="#2A2A2A"/>
<path d="M37.5745 6.08162C37.5274 10.9894 37.518 11.0905 36.9812 12.1382C36.6704 12.7356 35.8133 13.5995 35.5402 13.5995C35.333 13.5995 35.333 13.6087 35.333 15.2997V17H35.9452H36.5574V15.8971V14.7943H41.7845H47.0116V15.8971V17H47.6238H48.2359V15.2997V13.5995H47.1999H46.1639V7.57968V1.55987H41.8881H37.6122L37.5745 6.08162ZM44.9396 8.12192V13.5903L41.1535 13.6179C39.0626 13.6363 37.3391 13.6363 37.3202 13.6271C37.3108 13.6179 37.405 13.4984 37.5463 13.3513C37.923 12.9562 38.4316 11.8533 38.5917 11.0537C38.7047 10.5023 38.7518 9.47293 38.7801 6.52277C38.7989 4.42732 38.8177 2.6995 38.8177 2.68111C38.8177 2.67192 40.1928 2.66273 41.8787 2.66273H44.9396V8.12192Z" fill="#2A2A2A"/>
<path d="M51.2502 1.6058C51.2502 1.63338 52.192 3.03034 53.341 4.70302C54.4901 6.38489 55.4225 7.80024 55.4225 7.85538C55.4225 7.95648 54.4995 9.34425 52.2956 12.5885C51.5516 13.673 50.93 14.6104 50.9017 14.6748C50.8641 14.7667 51.0242 14.7943 51.5422 14.7943H52.2391L54.4524 11.3846C55.6673 9.50968 56.6751 7.94729 56.6939 7.90133C56.7128 7.85538 55.7992 6.41246 54.6784 4.69383L52.6253 1.55985H51.9377C51.561 1.55985 51.2502 1.57823 51.2502 1.6058Z" fill="#2A2A2A"/>
<path d="M58.0303 8.17705V14.7943H58.5954H59.1605V8.17705V1.55985H58.5954H58.0303V8.17705Z" fill="#2A2A2A"/>
<path d="M62.6461 4.38135C61.6384 5.92536 60.7154 7.34071 60.5929 7.53371L60.3857 7.87376L62.5613 11.2191C63.7575 13.0572 64.7935 14.6196 64.8594 14.684C64.9347 14.7667 65.1796 14.7942 65.6317 14.7759L66.3004 14.7483L64.0023 11.3478C62.7403 9.47292 61.7137 7.88295 61.7325 7.80943C61.7514 7.7359 62.7026 6.29299 63.8516 4.61112L65.9331 1.55985H65.2079L64.4827 1.56904L62.6461 4.38135Z" fill="#2A2A2A"/>
<path d="M69.8975 8.17705V14.7943H73.4293H76.9611V14.1509V13.5076H74.0415H71.1218V10.8883V8.26896H73.4764H75.8309V7.62562V6.98228H73.4764H71.1218V4.86845V2.75462H74.0415H76.9611V2.15724V1.55985H73.4293H69.8975V8.17705Z" fill="#2A2A2A"/>
<path d="M79.5039 2.20319V2.84653H81.623H83.7421V8.82039V14.7943H84.4014H85.0606V8.82039V2.84653H87.2268H89.393V2.20319V1.55985H84.4485H79.5039V2.20319Z" fill="#2A2A2A"/>
<path d="M96.8809 1.66551C96.8809 2.11075 96.8809 1.46001 96.8809 8.27563L96.8809 14.8173H97.1644C97.4125 14.8173 97.6252 14.8173 97.8024 14.8173L98.2277 14.8173V8.82037V2.82902L99.6501 2.82084H101.228H103.591V1.65179H100.661C99.0547 1.66092 98.653 1.66551 96.8809 1.66551Z" fill="#2A2A2A"/>
<path d="M110.179 2.77303C109.595 4.43652 108.295 8.10355 107.476 10.3828C107.109 11.4213 106.6 12.8367 106.346 13.5352L105.894 14.8035L106.609 14.7759L107.325 14.7483L107.438 14.3807C107.627 13.7649 111.422 2.81898 111.46 2.78222C111.479 2.76384 111.601 3.0947 111.733 3.50827C111.931 4.12404 114.511 11.5592 115.425 14.1509L115.641 14.7483L116.31 14.7759C116.687 14.7943 116.988 14.7851 116.988 14.7667C116.988 14.7483 116.687 13.8844 116.32 12.8551C115.142 9.53728 114.295 7.16611 113.551 5.09824C113.155 3.98618 112.712 2.74546 112.571 2.34107L112.307 1.60583L111.46 1.57826L110.612 1.55069L110.179 2.77303Z" fill="#2A2A2A"/>
<path d="M133.188 8.17705V14.7943H136.766H140.345V14.1509V13.5076H137.426H134.506V10.8883V8.26896H136.861H139.225L139.196 7.644L139.168 7.02823L136.842 7.00066L134.506 6.98228V4.86845V2.75462H137.426H140.345V2.15724V1.55985H136.766H133.188V8.17705Z" fill="#2A2A2A"/>
</svg>
