<svg width="228" height="22" viewBox="0 0 228 22" fill="none" xmlns="http://www.w3.org/2000/svg">
<g clip-path="url(#clip0_38_465)">
<path d="M152.828 0.332548C152.775 0.371517 152.735 3.39807 152.735 7.04812C152.735 14.2573 152.695 14.7639 151.989 16.1018C151.79 16.4915 151.244 17.1929 150.778 17.6735L149.913 18.5438L150.419 19.1283C150.698 19.4531 151.004 19.7259 151.111 19.7259C151.457 19.7259 153.068 17.9723 153.494 17.115C154.359 15.4133 154.372 15.2445 154.425 8.32109L154.479 2.06015H159.004H163.517V10.5683V19.0764H164.382H165.247V9.659V0.241623H159.084C155.69 0.241623 152.868 0.28059 152.828 0.332548Z" fill="white"/>
<path d="M185.587 0.332525L184.815 0.384483V9.73692V19.0894L185.72 19.0504L186.612 19.0114V10.5942V2.16404L189.54 2.216C192.149 2.25497 192.535 2.29394 193.068 2.54074C193.893 2.90445 194.466 3.39805 194.905 4.12546C195.238 4.67102 195.264 4.83988 195.264 6.09986C195.264 7.39881 195.238 7.50273 194.865 8.10024C194.439 8.78869 193.707 9.34723 192.935 9.59404C192.682 9.67197 191.737 9.77589 190.845 9.81486C189.94 9.85382 186.612 9.78888 186.612 9.81486C186.612 9.84084 186.612 10.1461 186.612 10.6819V11.6724H190.699C191.857 11.6594 193.241 11.4385 194.08 11.1398C195.158 10.7501 196.369 9.56806 196.768 8.51591C197.221 7.35984 197.367 6.16481 197.194 5.09967C196.888 3.19021 195.797 1.80034 193.92 0.930042C192.975 0.4884 192.828 0.46242 190.965 0.358503C189.021 0.254587 187.038 0.254589 185.587 0.332525Z" fill="white"/>
<path d="M201.587 9.68495V19.0764H206.579H211.571V18.1671V17.2578L207.484 17.2318L203.384 17.1929L203.344 13.5169L203.318 9.85381H206.645H209.973V8.94455V8.03528H206.645H203.318L203.344 5.07368L203.384 2.12506L207.484 2.0861L211.571 2.06012V1.2158V0.371483L206.579 0.345505L201.587 0.306536V9.68495Z" fill="white"/>
<path d="M221.754 0.371483C219.77 0.488388 218.785 0.813126 217.587 1.77435C216.829 2.35888 216.176 3.35907 215.897 4.32029C215.564 5.45037 215.671 7.21695 216.123 8.19116C216.802 9.60701 218.053 10.5682 219.717 10.906C220.103 10.9839 220.449 11.0748 220.476 11.1008C220.503 11.1138 220.396 11.2956 220.25 11.5035C219.85 12.049 215.298 18.9724 215.298 19.0244C215.298 19.0504 215.79 19.0764 216.403 19.0764L217.494 19.0634L220.556 14.3742C222.246 11.7892 223.631 9.60701 223.657 9.52908C223.684 9.41217 223.231 9.34722 221.927 9.30826C220.463 9.26929 220.05 9.20434 219.491 8.95754C218.532 8.54187 217.987 7.97034 217.734 7.13901C217.321 5.74913 217.694 4.28132 218.652 3.41102C219.824 2.35888 220.529 2.19001 223.777 2.19001H226.346V10.6332V19.0764H227.211H228.077V9.68495V0.306536L225.707 0.293545C224.416 0.280556 222.632 0.319525 221.754 0.371483Z" fill="white"/>
<path d="M1.41278 0.5014C1.13658 0.501411 0.787164 0.501411 0.487661 0.501411C0.487661 0.858635 0.487661 1.28078 0.454366 9.72394C0.437744 19.3524 0.437721 18.0859 0.437746 19.0634H2.28468V10.6332V2.12509H4.33128H6.57755H9.922V0.5014H5.87871C3.65574 0.514389 1.66187 0.501389 1.41278 0.5014Z" fill="white"/>
<path d="M19.6491 1.17684C19.5027 1.63148 18.0251 5.77512 16.3746 10.4124C14.724 15.0496 13.3662 18.8945 13.3662 18.9595C13.3662 19.0244 13.7789 19.0764 14.2847 19.0764H15.2032L15.3895 18.5178C16.7606 14.4521 21.0202 2.22899 21.0734 2.16405C21.1267 2.11209 21.739 3.77474 22.4578 5.86605C23.1766 7.95736 24.4944 11.7633 25.3996 14.3352L27.0235 19.0114L27.982 19.0504L28.9271 19.0894L28.4878 17.8164C28.2349 17.115 26.8505 13.2441 25.4129 9.20435C23.962 5.16462 22.6708 1.52756 22.5243 1.1119L22.2581 0.371494H21.1H19.9287L19.6491 1.17684Z" fill="white"/>
<path d="M35.17 6.76233C35.1035 13.6987 35.0902 13.8416 34.3314 15.3224C33.8921 16.1667 32.6808 17.3877 32.2948 17.3877C32.002 17.3877 32.002 17.4007 32.002 19.7908V22.1938H32.8672H33.7324V20.6351V19.0764H41.1202H48.5079V20.6351V22.1938H49.3731H50.2384V19.7908V17.3877H48.7741H47.3099V8.87962V0.371498H41.2666H35.2233L35.17 6.76233ZM45.5794 9.646V17.3747L40.2283 17.4137C37.2732 17.4397 34.8372 17.4397 34.8106 17.4267C34.7973 17.4137 34.9304 17.2449 35.1301 17.037C35.6625 16.4785 36.3814 14.9197 36.6076 13.7896C36.7674 13.0103 36.8339 11.5555 36.8739 7.38582C36.9005 4.42422 36.9271 1.98219 36.9271 1.95622C36.9271 1.94323 38.8706 1.93024 41.2533 1.93024H45.5794V9.646Z" fill="white"/>
<path d="M54.498 0.436432C54.498 0.475401 55.8291 2.4498 57.4531 4.81389C59.0771 7.19097 60.3949 9.19135 60.3949 9.26929C60.3949 9.41217 59.0904 11.3736 55.9755 15.9589C54.9239 17.4916 54.0454 18.8166 54.0055 18.9075C53.9522 19.0374 54.1785 19.0764 54.9106 19.0764H55.8957L59.0238 14.2573C60.741 11.6074 62.1653 9.39918 62.1919 9.33424C62.2185 9.26929 60.9273 7.22994 59.3433 4.8009L56.4414 0.371485H55.4697C54.9373 0.371485 54.498 0.397465 54.498 0.436432Z" fill="white"/>
<path d="M64.082 9.72392V19.0764H64.8807H65.6794V9.72392V0.371485H64.8807H64.082V9.72392Z" fill="white"/>
<path d="M70.6046 4.35927C69.1803 6.5415 67.8758 8.54188 67.7028 8.81466L67.4099 9.29527L70.4848 14.0234C72.1753 16.6213 73.6396 18.8296 73.7328 18.9205C73.8392 19.0374 74.1853 19.0764 74.8243 19.0504L75.7694 19.0114L72.5214 14.2053C70.7377 11.5554 69.2868 9.30826 69.3134 9.20435C69.34 9.10043 70.6845 7.06108 72.3084 4.684L75.2502 0.371492H74.2253L73.2003 0.384481L70.6046 4.35927Z" fill="white"/>
<path d="M80.8542 9.72392V19.0764H85.846H90.8377V18.1671V17.2578H86.7112H82.5847V13.5558V9.85382H85.9125H89.2403V8.94455V8.03529H85.9125H82.5847V5.0477V2.06012H86.7112H90.8377V1.2158V0.371485H85.846H80.8542V9.72392Z" fill="white"/>
<path d="M94.4316 1.28075V2.19001H97.4267H100.422V10.6332V19.0764H101.353H102.285V10.6332V2.19001H105.347H108.408V1.28075V0.371485H101.42H94.4316V1.28075Z" fill="white"/>
<path d="M118.991 0.520796C118.991 1.15008 118.991 0.230358 118.991 9.86323L118.991 19.1089H119.392C119.742 19.1089 120.043 19.1089 120.293 19.1089L120.895 19.1089V10.6331V2.16524L122.905 2.15368H125.136H128.475V0.501406H124.334C122.063 0.514315 121.496 0.520796 118.991 0.520796Z" fill="white"/>
<path d="M137.786 2.08611C136.961 4.43721 135.124 9.62001 133.966 12.8414C133.447 14.3092 132.728 16.3096 132.369 17.2968L131.73 19.0894L132.741 19.0504L133.753 19.0114L133.913 18.4918C134.179 17.6215 139.543 2.15105 139.597 2.0991C139.623 2.07312 139.796 2.54074 139.983 3.12527C140.262 3.99556 143.91 14.5041 145.201 18.1671L145.507 19.0114L146.452 19.0504C146.984 19.0764 147.41 19.0634 147.41 19.0374C147.41 19.0114 146.984 17.7904 146.465 16.3356C144.801 11.6464 143.603 8.29509 142.552 5.37245C141.993 3.80072 141.367 2.04714 141.167 1.4756L140.795 0.436441L139.597 0.397474L138.399 0.358505L137.786 2.08611Z" fill="white"/>
<path d="M170.306 9.72392V19.0764H175.364H180.422V18.1671V17.2578H176.296H172.169V13.5558V9.85382H175.497H178.838L178.798 8.97053L178.758 8.10023L175.47 8.06126L172.169 8.03529V5.0477V2.06012H176.296H180.422V1.2158V0.371485H175.364H170.306V9.72392Z" fill="white"/>
</g>
<defs>
<clipPath id="clip0_38_465">
<rect width="228" height="22" fill="white"/>
</clipPath>
</defs>
</svg>
