<svg width="29" height="30" viewBox="0 0 29 30" fill="none" xmlns="http://www.w3.org/2000/svg">
<path d="M11.3131 0C5.07341 0 0 5.24836 0 11.7032C0 18.158 5.07341 23.4064 11.3131 23.4064C14.179 23.4064 16.7917 22.292 18.787 20.4692L27.7828 29.7751C27.848 29.8453 27.926 29.9014 28.0123 29.94C28.0987 29.9786 28.1916 29.999 28.2857 30C28.3798 30.001 28.4731 29.9825 28.5602 29.9457C28.6472 29.9089 28.7264 29.8546 28.7929 29.7857C28.8594 29.7169 28.912 29.6351 28.9475 29.545C28.9831 29.4549 29.0009 29.3584 29 29.2611C28.999 29.1637 28.9793 29.0676 28.942 28.9783C28.9047 28.889 28.8505 28.8082 28.7826 28.7408L19.7869 19.4348C21.5489 17.3708 22.6262 14.668 22.6262 11.7032C22.6262 5.24836 17.5528 0 11.3131 0ZM11.3131 1.4629C16.7885 1.4629 21.212 6.03897 21.212 11.7032C21.212 17.3674 16.7885 21.9435 11.3131 21.9435C5.83767 21.9435 1.41414 17.3674 1.41414 11.7032C1.41414 6.03897 5.83767 1.4629 11.3131 1.4629Z" fill="#2A2A2A"/>
</svg>
