<svg width="39" height="23" viewBox="0 0 39 23" fill="none" xmlns="http://www.w3.org/2000/svg">
<path fill-rule="evenodd" clip-rule="evenodd" d="M38.1021 1.54342C38.3764 0.635526 38.1021 0 36.8218 0H32.5544C31.4571 0 30.9693 0.575 30.695 1.21053C30.695 1.21053 28.5308 6.47632 25.4522 9.86579C24.4463 10.8645 24.0195 11.1671 23.4709 11.1671C23.1965 11.1671 22.8003 10.8645 22.8003 9.95658V1.54342C22.8003 0.453947 22.4955 0 21.581 0H14.875C14.2044 0 13.7777 0.514473 13.7777 0.96842C13.7777 1.99737 15.3018 2.23947 15.4847 5.08421V11.3184C15.4847 12.6803 15.2408 12.9224 14.6922 12.9224C13.2595 12.9224 9.72364 7.65658 7.65089 1.60395C7.22415 0.484211 6.82789 0 5.73055 0H1.46312C0.243853 0 0 0.575 0 1.21053C0 2.33026 1.43264 7.89868 6.73644 15.2526C10.2723 20.2763 15.2408 23 19.7521 23C22.465 23 22.8003 22.3947 22.8003 21.3658V17.5526C22.8003 16.3421 23.0441 16.1 23.9281 16.1C24.5682 16.1 25.6351 16.4026 28.165 18.8237C31.0608 21.6987 31.5485 23 33.164 23H37.4315C38.6507 23 39.2604 22.3947 38.8946 21.2145C38.4983 20.0342 37.1266 18.3092 35.2977 16.2513C34.2918 15.0711 32.7982 13.8303 32.3715 13.1947C31.7314 12.3776 31.9143 12.0145 32.3715 11.3184C32.3715 11.2882 37.5839 4.025 38.1021 1.54342Z" fill="white"/>
</svg>
